<svg id="Layer_1" data-name="Layer 1" xmlns="http://www.w3.org/2000/svg" viewBox="0 0 2296.75 2316.38"><path d="M-684,1409c-.6-4.84-8.21-5-6.32-12.07H-820.13c-2.83-4.88-1.84-9-1.85-12.85q-.09-112-.06-223.95c0-5,.44-9.94-1.44-14.82a12.57,12.57,0,0,1-.42-6.91c3.45-15.15,1.23-30.51,1.89-45.75.09-2,.35-3.93.65-7.31,23.93-.76,47.78-.23,71.6-.33,23.66-.1,47.32,0,71,0H468q36,0,72,0c23.84,0,47.67.42,71.52.08,23.65-.33,47.32-.07,71-.07h430.92c23.66,0,47.33-.47,71,.13,23.84.61,47.65-.5,71.48-.2,24,.31,48,.07,72,.07h141.82c3.1,3.72,2.3,6.85,2.3,9.74,0,77.66.59,155.31-.35,233-.23,18.86,1.84,37.65.45,56.48-.31,4.32.13,8.7-4.69,13.1H1032.06c2.69,5.88,10.48,5.39,9.94,11.74h-26c.25-5.68,7.72-5.55,9.27-11.33H949.42c-2.13,4.07-.85,7.8-1.42,11.33H928l-3-10.94c-6.37-2.32-11.55-1.13-16.9,3.93-2.34-5.83-6.94-5-11.24-5q-42.93,0-85.86,0c-4,0-8.06-.53-10.91,3.91-3.15-3.59-6.6-4-10.36-4-5-.08-10.06,1.86-14.75,1.15-14.94-2.24-29.88-.29-44.79-1.09-3.78-.21-7.18.45-10.37,4-3.45-5.29-8.39-3.9-12.91-3.9-64.23-.06-128.46-.2-192.69.1-12.13,0-24.26-.06-36.39-.09-17,0-34-.38-50.91.15-7.13.22-14.13,1-21.33,0a41.27,41.27,0,0,0-17.49.83c2.5,4.08.4,7.43-.09,10.94h-8c-.72-3.75-2.77-7.51,1-10.89-3.68-1.82-6.69-1.08-9.58-1.08q-259.3-.06-518.63-.1c-7.8,0-15,.55-19.43,8.2-7.09-7.42-8.77-8.11-19.52-8.13q-25.47,0-51,0-65,0-129.91,0c-5.16,0-10.25-.29-11.71,6.39-.07.31-1.07.41-1.69.62-2.25-1.42.76-4.85-2.25-6.08-2.8-1.27-5.82-.88-8.78-.89q-118.43,0-236.84,0c-4.74,0-9.27.17-13.28,3.87-6.55-5.86-13.45-4.6-21.4-1.44,5,4.12,2.44,7-1,9.62Zm449.89-241.17c-3.41-.4-4.19-2-5.15-3.25-16.62-22.46-62.05-21.45-76.52,9.52a101.11,101.11,0,0,0-8.26,26.56c-3.95,24.14-3.38,48.41-1.49,72.63a114.28,114.28,0,0,0,7.77,32.85c14.22,36.28,63.25,36.25,79.78,12.68,1.18-1.68,1.83-4.45,5.24-4.35,1.23,5-.5,10.39,1.18,15.54h41.5V1097.16h-44.05Zm750,219.55v-24.45c0-8-.2-16,.06-24,.24-7.61-1.17-15.37,1.24-23.94,1.43,1.69,2,2.48,2.71,3.22,24.9,27.88,66.23,20.71,80.12-14A85.83,85.83,0,0,0,604.2,1291c6-27.29,5.67-54.84,2.8-82.43-1.27-12.3-4.25-24.22-9.93-35.34-16.47-32.28-63.58-29.49-77.55-7.46-1.08,1.7-2,4.25-5.67,4.28v-15h-42v232.42Zm-336-57.11c.18-3.15.42-5.44.42-7.74q0-61.48,0-123a83.73,83.73,0,0,0-.66-12c-2.51-17.35-9.85-31.59-28.13-36.15-22.23-5.54-42.35-2-57.31,17.42-.53.7-.94.95-2.8-.43v-71.82c-8.46,0-15.77-.12-23.08,0s-14.41-.68-21.41.54v233H90.6c1.52-1.87,1.35-3.57,1.35-5.19q0-38-.12-76c0-12.33-.1-24.66-.12-37A39.31,39.31,0,0,1,94,1198.31c3.59-9.8,11.63-15.18,23.62-14.4,10.6.68,14.56,5.43,17,17.41a57.56,57.56,0,0,1,1,11.9q-.29,53-.55,105.93c0,3.59-.87,7.34,1.34,11.12Zm766.27-158-2.07-.77v-16.83H902.84c-2.32,12.65-2.3,167.51,0,175.52h42.35c1.93-3.92,1.09-7.63,1.1-11.19q.11-52.95,0-105.89c0-6.78.89-13.28,4.4-19.17,4.73-7.92,14.26-11.55,24.31-9.43,9.2,1.94,13.4,6.94,14.51,17.59a86.71,86.71,0,0,1,.15,9q0,54,.05,107.89c0,3.57-.82,7.28.83,10.69,10.83,1.73,36.25,1.44,43.47-.53.11-1.58.33-3.23.33-4.88q0-65.43,0-130.87a48.43,48.43,0,0,0-.81-9.93c-3.12-14.43-9.9-26-24.83-31.14a57.86,57.86,0,0,0-27.5-2.42C966.26,1152.06,954.4,1159.23,946.16,1172.25Zm-1442.32-17.71v175.51h43.61c1.45-4.16.84-7.84.84-11.46q.09-53,0-105.92c0-6.79,1-13.28,4.63-19.12,4.77-7.76,14.49-11.23,24.51-9,8.72,2,12.8,6.77,14.05,17a74.78,74.78,0,0,1,.18,9q0,54.46,0,108.92c0,3.54-.64,7.22.89,10.74h43.13c1.64-3.52,1.12-6.87,1.11-10.11q-.19-62.94-.49-125.89a54,54,0,0,0-.73-9.94c-2.3-11.79-7-22.26-17.85-28.72-19-11.3-52.45-7.57-66.1,12-1.12,1.6-1.76,4.55-4.91,3.89-1.29-5.53.71-11.27-1.4-16.87Zm-128.72,52.38c.51-4.35.51-8.05,1.42-11.51,2-7.58,6.44-13.1,14.58-14.68s16.2-1.15,22.09,5.57c9.64,11,4.87,29.58-8.93,34.55-7.48,2.69-15.35,4.28-23,6.46-10.23,2.9-20.51,5.57-29.87,11s-16,13.22-18.89,23.54c-4.52,16.09-4.38,32.3,1.86,48,5,12.49,13.8,21.44,27.42,23.75,20.74,3.51,40,1.51,53.17-18a11.63,11.63,0,0,1,2.27-1.95c3.36,5.12,2.33,11.87,6.66,16.47h42.24c-6-16-5.33-32-5.33-47.9,0-19.31,0-38.63,0-58,0-10.65,0-21.32-.46-32-.88-19.14-10.39-32.47-28.28-38.16-20.72-6.6-41.94-7.3-62.85-.87-24.24,7.46-36.36,27.84-32.46,53.63Zm1398.21.08c.28-3.67.31-6.32.71-8.92,1.71-11.27,9.07-18.26,20.28-18.13,12.77.15,18.82,4.53,20.7,14.65,2.62,14.15-.54,21.63-12.06,26-5,1.89-10.19,3-15.31,4.48-10.54,3-21.25,5.39-31.43,9.65q-23.7,9.92-27.72,35.09a83.65,83.65,0,0,0,0,26.89c3.48,20.84,15.18,34.71,33.53,37.35,20,2.88,38.76.25,51.13-18.75.47-.71,1.46-1.09,2.22-1.64,3.2,5.24,2.15,12,6.5,16.27h42.2c-2.18-7.44-4-14.08-4.59-21.1-.59-7.33-.62-14.63-.66-21.94-.18-31,0-62-.5-92.91-.35-21.9-11.34-35.57-32.34-41.17a111.43,111.43,0,0,0-53.34-1.22c-27.64,6.12-42.93,28.79-37.7,55.36ZM1203,1248.42c1.78-9.71-.75-18.56-.66-27.44a107.37,107.37,0,0,0-4.5-30.49c-6.44-22.6-20.51-36.67-44.51-40.06a105.87,105.87,0,0,0-18.87-1.08c-35.47,1.27-55.47,17.93-62.48,51.49-3.76,18-4.55,36.35-3.5,54.62.75,12.89,1.5,25.9,5.47,38.43,6.18,19.56,18.34,32.88,38.62,38a93.71,93.71,0,0,0,46.4.3c26.75-6.72,44.46-33.7,40.08-60.67H1160.6c-2.07,6.8-2.64,13.49-5.42,19.63-3.65,8-9.86,12.92-18.48,13.12-8.9.2-14.91-5.24-18.25-13.23-5.65-13.54-5.39-27.64-4.11-42.64Zm-855,.64c.92-22.18.69-43-6.2-63.15s-20.75-31.81-41.81-35.34a96.61,96.61,0,0,0-19.84-1.22c-35.69,1.35-55.21,17.51-62.41,50.17-5.06,23-4.34,46.24-2.86,69.49a103.15,103.15,0,0,0,5.22,27.36c6.77,19.48,20.09,31.85,40.27,36.27a97.37,97.37,0,0,0,37.66.95c30.56-5.27,49.73-30.07,47.09-62H306c-2.41,6.23-2.57,13.38-5.57,19.74-3.78,8-9.75,12.67-18.6,12.7-8.64,0-14.38-5-17.55-12.6-5.62-13.46-5.9-27.58-5.07-42.41Zm969.44,50.63c-2.11-.19-3.1-.35-4.09-.37-19.24-.42-21.63-2.79-21.68-22.17q-.09-42,0-83.91c0-2.56-.76-5.3,1.62-8.7h24.13c.55-10.52.91-20-.15-29.69-8.48-1.84-16.88.4-25.77-1.68v-49.31h-45.51v49.45c-8,1.87-15.1-.61-22.08,2a248.41,248.41,0,0,0,.14,29.48h22.21v10.6c0,29.31-.12,58.61.09,87.91a192.36,192.36,0,0,0,1.84,23.84c1.53,11.5,7.25,20,19.2,22.74,16.73,3.87,33.4,1.76,50,.36Zm-1296.88,0c-2.29-.29-3.25-.52-4.22-.52-18.84,0-21.76-2.93-22-21.94v-1q0-41.48,0-82.94c0-2.57-.77-5.33,1.23-8,7.79-1.75,16.22.81,24.06-1.48v-29c-8.63-1.73-17.07,1.08-25.84-2.32v-48.62H-50.44V1153c-7.8,2.58-15.31-.16-22.73,2.11v28.93c7.53,1.62,14.93-.49,22.78,1.61v9.93q0,46.47,0,92.93c0,7.31.21,14.58,1.86,21.83,2.81,12.34,10.64,18.79,22.71,20.56,15.21,2.24,30.36,1,46-.72C21.34,1320,20.88,1310.12,20.6,1299.7Zm626.28-202.52c-2.13,28.76-1.16,225.68,1.18,233.47,14.34,0,28.8.18,43.19-.12V1097.18Z" transform="translate(824.2 907.38)" style="fill:#bececb"/><path d="M-568,214.92c-9.69,18.11-18.27,34.19-26.92,50.23-1.35,2.49-1.41,5.09-1.4,7.75.29,53.65-.09,107.31,1.08,160.94,1.11,51,.42,101.94,1.54,152.9a50.43,50.43,0,0,1-.46,5.39H-820.75V-500h226.59c.48,113.26-1,226.32-.66,339.67,19.3-37.08,36.52-75,54.34-112.59,18-37.89,35.63-75.92,53.45-113.88s35.64-75.8,53.3-113.35H58.47V592.25H-416.37C-466.41,467.71-516.72,342.51-568,214.92Zm259.23,24.26h-.08c.65,1.88,1.18,3.81,2,5.63Q-240.31,396-173.63,547.26c.68,1.54.58,4.11,3.35,4.15,2.12-22.73,1.11-1039.67-1.15-1047.06-1.21,2.22-2.34,4.2-3.39,6.23Q-218.44-405.16-262-320.91-339.39-171.42-416.88-22c-3.18,6.1-3.12,10.68-.44,16.7,27,60.83,53.76,121.8,80.7,182.67C-327.47,198-319,219-308.77,239.18Z" transform="translate(824.2 907.38)" style="fill:#33304d"/><path d="M526.09-21c1.74,8.8,5.8,16.74,9.64,25.06,1.79-18.31,1.21-36.6,1.35-54.86.15-18.67,0-37.33,0-56v-112q0-28.5,0-57c0-18.67-.07-37.33,0-56s.41-37.31.5-56,0-37.33,0-56v-56.44H755.46c1.86,3.37,1,7.08,1,10.59q.07,249.48,0,499V591c-8.33,2.38-193.64,3.35-232.28,1.28L337.9,84.89c-2.17,169.1-.65,337.82-.07,507.17H116.91V-500.25H349.55c2.82,3,3.41,6.71,4.65,10.1Q435.69-267,517.14-43.75c.34.94.79,1.83,1.18,2.75Z" transform="translate(824.2 907.38)" style="fill:#33304d"/><path d="M1471.49,728.23v306.71c-2.61,2.88-5.79,2-8.67,2-12.67.09-25.33,0-38,0-4,0-7.91-.12-11.85,1.2a13.46,13.46,0,0,1-7.85.44c-7.53-2.38-15.19-1.61-22.8-1.62q-94-.09-188,0c-4.63,0-9.24-.32-13.82,1.38a13.76,13.76,0,0,1-9.82-.23,20,20,0,0,0-10.82-1.08c-16.21,2.78-32.34-.77-48.52-.21-16,.55-32,0-48,.15-6.62,0-13.29-.78-19.8,1.57-2.5.91-5.2.16-7.82-.66a21.39,21.39,0,0,0-14.75.63c5.84,2,9.08,6.77,13.06,10.68,2.32,2.28,2.65,5,.36,7-4.7,4-7.55,10.28-14.6,12.09-6,.71-10.76-10.82-19-.53,1.21-9.12-3.69-17.21,4.54-22.82-.74-4.53-3.34-6.37-7.71-6-2,.15-4,0-6,0H580.53c-3.82,3.16-1.5,11-8.86,9.28-1.7-1.75-.29-3.24-.1-4.78.53-4.19-1.32-6.13-5.63-6.14-28.22,0-56.44-.22-84.65-.29-6,0-11.93-.44-17.81,1.54a15.61,15.61,0,0,1-7.92.21c-17.17-3.71-34.54-1.65-51.77-1.41-7.85.11-15.65,1.88-23.5-.31a9.64,9.64,0,0,0-3,0c-28.5,1.33-57-.54-85.5-.11-28.32.44-56.65.1-85,.1q-43,0-86,0c-4,0-7.92-.12-11.86,1.2a13.44,13.44,0,0,1-7.84.45c-7.54-2.4-15.19-1.62-22.8-1.63q-159-.07-318,0c-10.22,0-20.54-.25-30.64.41-11.61.76-23-.44-34.53-.43q-251.47.09-502.94,0c-4.27,0-8.61.52-12.65-.68-2-7.58-2.5-296.15-.62-307.85,3.16-2.52,7-1.42,10.5-1.44,21-.1,42,0,63,0H-435.9c9.3,0,18.52-.07,27.78-1.8,10.91-2,21.75,1.84,32.71,1.84q186-.07,372,.05c10.66,0,21-2.82,31.75-2.15,74.53,4.61,149.15,1.35,223.72,1.94s149.31.13,224,.13q210,0,420,0c5.29,0,10.64.68,15.8-1.48a9,9,0,0,1,4.92-.3c19.83,3.82,39.86,1.68,59.74,1.37,7-.11,14.22,0,21.38-1.06,6.62-.93,13.65,1.6,20.68,1.59q220-.18,440-.06C1462.36,727,1466.4,726.36,1471.49,728.23ZM64.1,824.66c-4.42-4.77-6.66-9.17-10.42-12.33C32.1,794.22-1.43,799.67-15.85,823.52A82.55,82.55,0,0,0-26,849.41c-5.7,27-5.79,54.18-1.46,81.3,2.32,14.55,7,28.41,16.84,40,16.1,19,53.8,24.24,72.09-2.52,1-1.43,1.14-4.07,4.63-3.08v15.57H91.37V748.58a186.49,186.49,0,0,0-27.27-.06Zm-481.19-75.72v232a176.15,176.15,0,0,0,26.79,0V970.29c0-13.67,0-27.33.07-41,0-2.93-.72-6,1.42-8.65,6.69-8.11,13.39-16.21,21-25.44L-319.35,981h31.84l-61.83-108.56L-296.8,807h-31.82l-59.62,78.07-2.07-.79V748.35C-399.87,748.33-408.39,747.28-417.09,748.94Zm1215.56,57.9c-10.42,13.57-20.52,26.79-30.69,39.95-10,12.91-19.21,26.42-29.92,38.73l-1.81-.87V748.58c-9.19-.4-17.63-1-26.11.39v232.2c9.19-.07,17.68,1.13,26.49-.76,0-17.16,0-33.8,0-50.43,0-2.94-.81-6.15,1.26-8.71,6.84-8.45,13.8-16.8,21.43-26.08l48.29,85.56h31.92L777.58,872.48l52.69-65.64ZM313.08,897.51c.27,4.94.58,13.26,1.21,21.56a121.28,121.28,0,0,0,1.87,12.81c6,33.08,22,50.46,52.35,54.18,27.73,3.39,50.89-7.61,61.84-34.78a88,88,0,0,0,3.82-11.35c6.58-26.19,6.86-52.64,2.78-79.2a96.09,96.09,0,0,0-9-29.46c-5.15-10.07-12.3-18.41-22.58-23.26-27.87-13.14-71.7-9.1-85.36,33.91C314.56,859,313.3,876.45,313.08,897.51Zm-498.34-90.43V981.27c9.16-.41,17.88,1.33,26.95-1.07V969.77q0-51.45,0-102.91a85.92,85.92,0,0,1,.64-13,34.57,34.57,0,0,1,40.27-28.4c7.69,1.46,13.39,5.65,16.63,12.91,2.5,5.59,3.1,11.47,3.09,17.53q-.09,57,0,113.91c0,3.55-1,7.29,1.17,11a169.33,169.33,0,0,0,25.28.14c1.76-3.78,1-7.15,1-10.39q.09-57.45,0-114.9c0-4.33.12-8.68-.27-13-1.29-14.44-5.1-27.94-19-35.21-19.07-9.95-43.65-8-60.6,7.06-3.08,2.75-5.45,6.3-9.6,11.19V807.08Zm852.9,50c1.31-5,.31-8.91,0-12.84a55,55,0,0,0-1.54-8.8c-4.36-18.3-16.3-29.42-34.94-32.39a91.64,91.64,0,0,0-27.73-.61c-25.83,3.65-46.21,20.32-44.11,52.53,1.31,20,10.44,33.09,28.93,39.93,9.36,3.45,18.83,6.6,28.26,9.86,6.63,2.29,13.16,4.89,18.62,9.37,8.42,6.89,11.58,16,9.89,26.66-1.75,11.08-7.49,18.89-18.58,22.44-21.53,6.92-39.91-4.81-42.62-27.23-.43-3.53.88-7.3-1.51-11-8.68-.42-17.48-1-26,.3,0,5-.44,9.35.08,13.58,2.21,18.19,9.46,33.65,27.09,41.33,19.32,8.4,39.37,9,59.23,1.31,13.95-5.4,22.65-15.83,27.22-29.93,2.41-7.41,2.47-15,2.5-22.7.06-19.39-8.73-32.95-26.42-40.81-8.53-3.79-17.42-6.56-26.3-9.35-6.66-2.09-13.34-4.17-19.48-7.61-12.88-7.21-17.32-19.59-11.64-33.07,4.82-11.45,14.66-14.73,25.94-15,15-.33,23.7,7.28,25.62,22.16.51,3.89.23,7.93,2.26,11.84ZM1056.42,981c.16-3,.34-5,.34-7q0-60,0-120a136.86,136.86,0,0,0-.93-16.94c-1.46-11.68-5.9-22-16.39-28.38-18.38-11.15-46-9.78-63.06,6.49-2.75,2.61-5,5.77-8,9.3-1.61-6.4.57-12.19-1.81-17.67-8.45,0-16.63-1.1-24.37.59V980.89h26.15V873.73c0-4.33-.19-8.67,0-13,1.14-22,16.69-36.81,37.31-35.58,11.32.68,18.77,6.41,21.88,17.19a59.66,59.66,0,0,1,2.12,16.76q-.15,55.49,0,111c0,3.53-.92,7.26,1,10.89ZM234.11,755.57v50.18c-8.58,2.21-16.7-.73-24.29,2.06-.09,6.63-.66,12.85.41,19.81h22.92c1.89,4.33,1.14,8,1.15,11.62.06,32.29.12,64.59,0,96.88a211.4,211.4,0,0,0,1.4,23.89C237,972.44,243,980,255,982.26s24.35,1.58,36.69,0c.84-8.06,1.11-15.25-.13-22.51-3,.32-5.59.74-8.23.87-17,.79-21.28-6.55-21.13-20.34.36-34.29.08-68.59.17-102.88,0-3.17-1.19-6.69,2.34-10.24h27.69c-.61-7.24,1.08-13.71-1.25-20.85H262.34V755.57ZM866.67,981.21a111,111,0,0,0,26.53,0V806.63c-6.07,0-11.66-.09-17.23,0-2.91.06-6-.75-9.3,1.29ZM-260,807.07c-1.91,35.9-1,166.57,1.06,174h24.68v-174ZM866.67,778.66H893V748.55c-9.19-.58-17.67-.89-26.32.21ZM-234.39,779V748.82H-260.2c-.12,10.34-.63,20.07.39,30.13Z" transform="translate(824.2 907.38)" style="fill:#bececb"/><path d="M808.36,592.68V-498.72c2.27-2.84,5.14-1.91,7.67-1.91,93-.06,186-.77,278.91.22,52.65.57,104.77,6.63,155.36,23.08C1334.4-450,1391.36-394.45,1424-313c17.45,43.51,27.31,88.91,33.9,135.15,4.93,34.6,7.91,69.4,9.67,104.27,1.47,29.24,2.54,58.52,2.53,87.83,0,49.63.47,99.27-2.31,148.83-3.53,62.81-9.67,125.33-25.73,186.45-10.46,39.82-24.95,77.91-47.63,112.56-34.63,52.9-83.3,87.07-142.7,106.83-33.29,11.08-67.59,17.15-102.46,20.46-31.21,3-62.48,3.37-93.79,3.31q-117.46-.19-234.93,0ZM1037-287.48v666.9c33.19-1,65.85,2.15,98.29-2.84,19.7-3,38.14-9.43,53.3-23.09,14.25-12.84,23-29.17,29.38-46.93,10.31-28.72,14.48-58.7,17.66-88.82,3.79-35.78,5.18-71.74,5.72-107.67.74-49,1-97.93-.71-146.91-1.4-39.29-3-78.5-8.63-117.43-3.64-25.4-9-50.38-19.74-74-13.91-30.51-37.31-48.49-70.09-54.93C1107.45-290,1072.48-286.23,1037-287.48Z" transform="translate(824.2 907.38)" style="fill:#33304d"/><path d="M381.84-583q.24-76.18.47-152.38c.08-54.3,0-108.6.05-162.91,0-2.59-.63-5.3,1-8.44h71.81q46.38,96.19,93,192.75l2.08-.26c0-63.92,0-127.83,0-192.43h71.66v356.72H549.69c-30.78-63.86-62-128.6-93.19-193.35l-2,.59v192.79H382.7c.23-8-2.32-15.45-.86-23.14A24.65,24.65,0,0,0,381.84-583Z" transform="translate(824.2 907.38)" style="fill:#33304d"/><path d="M1000.61-825.55H862.8v53.61H989.13v76.4H863v64.66h140.53v81.09H786c-.14-118.83,0-237.54-.06-356.91h214.67Z" transform="translate(824.2 907.38)" style="fill:#33304d"/><path d="M15.12-549.51h-75.9c0-7.39,94.93-335.16,103.53-357.37h73Q167.19-729.2,219.13-549.81H139.74q-9.77-36.56-19.92-74.61h-84C29-599.91,22.15-575,15.12-549.51Zm64.11-226.8-1.93-.15-21.18,77H99.63C92.74-725.45,86-750.88,79.23-776.31Z" transform="translate(824.2 907.38)" style="fill:#33304d"/><path d="M-820.79-906.87c2.51-.18,4.48-.44,6.44-.44,41,0,81.93.52,122.89-.06,43.89-.63,77.46,26.82,89.68,64.93,13.2,41.14,12.91,82.26-6.53,121.47-15.82,31.92-43,48.23-78.57,49.66-16.3.65-32.65.24-49,.41-2.59,0-5.33-.71-8.83,1.58v119.4h-76.1Zm77.35,111.79c2.38,6.06.91,12.09-.15,18.13-1.85,9.51-.71,19-.7,29.51,18.21-.28,35.76,1.61,53.11-2,10.64-2.22,17.72-9.19,20.82-19.45a68.35,68.35,0,0,0-.43-41.21c-3.14-9.87-10.12-16.5-20.4-18.5-17.37-3.38-34.92-1.92-53.25-1.88C-744.07-818.06-745.73-806.56-743.44-795.08Z" transform="translate(824.2 907.38)" style="fill:#33304d"/><path d="M1245.93-825.19c-13.88-1.2-26.78-.34-39.68-.19-12.59.13-25.19,0-38.26,0v-81.44h232.5v80.58c-25.66,1.14-51.46-.16-78.15.75v275.62h-76.41Z" transform="translate(824.2 907.38)" style="fill:#33304d"/><path d="M-429.68-906.93h75.88v276.08h127.64v81.19H-429.68Z" transform="translate(824.2 907.38)" style="fill:#33304d"/><path d="M783.61,585.74c3.17,1.38,1.6,4.77,3.87,6,2.12,1,3.12-2.75,5.86-.93,1.48,3.54.78,7.94,2.08,12.07,1.61,5.06,5,6.49,11.13,6.62-9.35,11.62-25.14,13.16-28.65,26.88-5.13-.71-2.89-5-4.29-5.79-3.83-2.72-5.69.36-8.23,1-1.93-1.91-2.28-4.46-2.83-7.25,2.18-3.69,8.11-4.84,7.84-10.55-.07-1.39,1.29-2.17,2.65-2.58,6.75-2,6.86-7.75,7-13.18C780.17,593.73,779.58,589.38,783.61,585.74Z" transform="translate(824.2 907.38)" style="fill:#bececb"/><path d="M381.84-583a24.65,24.65,0,0,1,0,9.94q-6.63,3.16-13.25,6.31c-5.36,2.54-7.86,1.16-8.51-4.87a57.16,57.16,0,0,1,0-6.52c1.88-3.73,6.36-4.56,7.3-8.64-.06-4.41-5.8-4-7.06-8.7-.36-4.95,5.11-7,7.26-11.1,7.53,4.12,7.53,4.12,5.08,16.3C377.4-590.14,377.2-583.81,381.84-583Z" transform="translate(824.2 907.38)" style="fill:#bececb"/><path d="M1415.51-777.93c-6.63,1.71-11.8,5-16.63,9-3.12,2.55-6.27,2.6-8.11-1.31-1.56-3.34-.86-7.78,2.92-8,7.78-.42,10.8-7.5,16.75-10.28,2-1,3.59-2.94,6.63-1.35C1418.74-785.75,1415.18-782.2,1415.51-777.93Z" transform="translate(824.2 907.38)" style="fill:#bececb"/><path d="M526.09-21,518.32-41h7.39C533.07-32.23,533.07-32.23,526.09-21Z" transform="translate(824.2 907.38)" style="fill:#bececb"/><path d="M-376,717c-1.81,6.3-1.81,6.3-9.29,4.15,2.21-3.72,5.62-4.2,9.27-4.17Z" transform="translate(824.2 907.38)" style="fill:#bececb"/><path d="M-376,717c.27-1.44.22-3.15,2.41-3a.9.9,0,0,1,.62.62c.14,2.19-1.57,2.14-3,2.41Z" transform="translate(824.2 907.38)" style="fill:#bececb"/><path d="M-234.11,1167.83v-70.67h44.05V1330h-41.5c-1.68-5.15.05-10.52-1.18-15.54-3.41-.1-4.06,2.67-5.24,4.35-16.53,23.57-65.56,23.6-79.78-12.68a114.28,114.28,0,0,1-7.77-32.85c-1.89-24.22-2.46-48.49,1.49-72.63a101.11,101.11,0,0,1,8.26-26.56c14.47-31,59.9-32,76.52-9.52C-238.3,1165.86-237.52,1167.43-234.11,1167.83Zm-.27,74.56c0-5.32.34-10.67-.07-16-.82-10.56-1.31-21.22-5.78-31.15-3.58-8-10.21-11.48-18.34-11.44-7.78,0-14,3.67-17.48,11.16a53.23,53.23,0,0,0-4.14,14.29c-2.41,15.52-1.95,31.14-1.65,46.76.19,9.67,1,19.26,4,28.49,2.18,6.85,5.84,12.62,13.53,14.7,12,3.24,22.11-2.38,26-15.35C-234.29,1270.37-234,1256.38-234.38,1242.39Z" transform="translate(824.2 907.38)" style="fill:#33304d"/><path d="M515.93,1387.38h-44V1155h42v15c3.68,0,4.59-2.58,5.67-4.28,14-22,61.08-24.82,77.55,7.46,5.68,11.12,8.66,23,9.93,35.34,2.87,27.59,3.23,55.14-2.8,82.43a85.83,85.83,0,0,1-4.14,13.31c-13.89,34.67-55.22,41.84-80.12,14-.67-.74-1.28-1.53-2.71-3.22-2.41,8.57-1,16.33-1.24,23.94-.26,8-.06,16-.06,24Zm.47-145.51c0,6.32-.32,12.66.08,19,.53,8.29,1.36,16.61,4.17,24.52,3.39,9.58,10.13,14.71,19.14,14.79s15.81-4.74,19.3-14.49a59.13,59.13,0,0,0,2.92-12.6,263.36,263.36,0,0,0,0-62.74,45,45,0,0,0-4.83-16.16,18.37,18.37,0,0,0-17.07-10.25c-7.87,0-14.12,3.53-17.69,10.88a52.57,52.57,0,0,0-4.51,15.23A178.68,178.68,0,0,0,516.4,1241.87Z" transform="translate(824.2 907.38)" style="fill:#33304d"/><path d="M179.89,1330.27H136.4c-2.21-3.78-1.36-7.53-1.34-11.12q.19-53,.55-105.93a57.56,57.56,0,0,0-1-11.9c-2.42-12-6.38-16.73-17-17.41-12-.78-20,4.6-23.62,14.4A39.31,39.31,0,0,0,91.71,1212c0,12.32.1,24.65.12,37q.09,38,.12,76c0,1.62.17,3.32-1.35,5.19H46.9v-233c7-1.22,14.25-.38,21.41-.54,7.31-.15,14.62,0,23.08,0v71.82c1.86,1.38,2.27,1.13,2.8.43,15-19.39,35.08-23,57.31-17.42,18.28,4.56,25.62,18.8,28.13,36.15a83.73,83.73,0,0,1,.66,12q.08,61.48,0,123C180.31,1324.83,180.07,1327.12,179.89,1330.27Z" transform="translate(824.2 907.38)" style="fill:#33304d"/><path d="M946.16,1172.25c8.24-13,20.1-20.19,35.05-22.38a57.86,57.86,0,0,1,27.5,2.42c14.93,5.1,21.71,16.71,24.83,31.14a48.43,48.43,0,0,1,.81,9.93q.06,65.43,0,130.87c0,1.65-.22,3.3-.33,4.88-7.22,2-32.64,2.26-43.47.53-1.65-3.41-.82-7.12-.83-10.69q-.11-53.94-.05-107.89a86.71,86.71,0,0,0-.15-9c-1.11-10.65-5.31-15.65-14.51-17.59-10-2.12-19.58,1.51-24.31,9.43-3.51,5.89-4.41,12.39-4.4,19.17q.09,52.94,0,105.89c0,3.56.83,7.27-1.1,11.19H902.83c-2.29-8-2.31-162.87,0-175.52h41.25v16.83Z" transform="translate(824.2 907.38)" style="fill:#33304d"/><path d="M-496.16,1154.54h41.52c2.11,5.6.11,11.34,1.4,16.87,3.15.66,3.79-2.29,4.91-3.89,13.65-19.56,47.06-23.29,66.1-12,10.88,6.46,15.55,16.93,17.85,28.72a54,54,0,0,1,.73,9.94q.3,63,.49,125.89c0,3.24.53,6.59-1.11,10.11H-407.4c-1.53-3.52-.88-7.2-.89-10.74q-.07-54.46,0-108.92a74.78,74.78,0,0,0-.18-9c-1.25-10.18-5.33-15-14.05-17-10-2.27-19.74,1.2-24.51,9-3.59,5.84-4.64,12.33-4.63,19.12q.09,53,0,105.92c0,3.62.61,7.3-.84,11.46h-43.61Z" transform="translate(824.2 907.38)" style="fill:#33304d"/><path d="M-624.88,1206.92h-38.41c-3.9-25.79,8.22-46.17,32.46-53.63,20.91-6.43,42.13-5.73,62.85.87,17.89,5.69,27.4,19,28.28,38.16.48,10.63.42,21.3.46,32,.06,19.32,0,38.64,0,58,0,15.93-.7,31.92,5.33,47.9h-42.24c-4.33-4.6-3.3-11.35-6.66-16.47a11.63,11.63,0,0,0-2.27,1.95c-13.17,19.48-32.43,21.48-53.17,18-13.62-2.31-22.45-11.26-27.42-23.75-6.24-15.69-6.38-31.9-1.86-48,2.9-10.32,9.47-18.1,18.89-23.54s19.64-8.08,29.87-11c7.68-2.18,15.55-3.77,23-6.46,13.8-5,18.57-23.56,8.93-34.55-5.89-6.72-13.89-7.15-22.09-5.57s-12.59,7.1-14.58,14.68C-624.37,1198.87-624.37,1202.57-624.88,1206.92Zm42.51,36c-8.87,4.76-17.29,7.36-25.78,9.86-21.23,6.25-22.72,28.41-15.57,43,2.51,5.12,7.13,7.88,12.71,8.49,13.21,1.45,27.74-10.23,28.5-23.65C-581.83,1268.51-582.37,1256.32-582.37,1242.91Z" transform="translate(824.2 907.38)" style="fill:#33304d"/><path d="M773.33,1207H734.92c-5.23-26.57,10.06-49.24,37.7-55.36a111.43,111.43,0,0,1,53.34,1.22c21,5.6,32,19.27,32.34,41.17.49,31,.32,61.94.5,92.91,0,7.31.07,14.61.66,21.94.57,7,2.41,13.66,4.59,21.1h-42.2c-4.35-4.23-3.3-11-6.5-16.27-.76.55-1.75.93-2.22,1.64-12.37,19-31.16,21.63-51.13,18.75-18.35-2.64-30-16.51-33.53-37.35a83.65,83.65,0,0,1,0-26.89q4-25.12,27.72-35.09c10.18-4.26,20.89-6.64,31.43-9.65,5.12-1.46,10.36-2.59,15.31-4.48,11.52-4.41,14.68-11.89,12.06-26-1.88-10.12-7.93-14.5-20.7-14.65-11.21-.13-18.57,6.86-20.28,18.13C773.64,1200.68,773.61,1203.33,773.33,1207Zm42.32,35.52c-7.85,4.33-14.46,7.15-21.57,8.87-23.57,5.7-26.07,22.9-21.37,40.66A15.84,15.84,0,0,0,788,1304.17c14.9.3,27.05-10.84,27.55-25.84C816,1267,815.65,1255.73,815.65,1242.52Z" transform="translate(824.2 907.38)" style="fill:#33304d"/><path d="M1203,1248.42h-88.7c-1.28,15-1.54,29.1,4.11,42.64,3.34,8,9.35,13.43,18.25,13.23,8.62-.2,14.83-5.07,18.48-13.12,2.78-6.14,3.35-12.83,5.42-19.63h38.49c4.38,27-13.33,54-40.08,60.67a93.71,93.71,0,0,1-46.4-.3c-20.28-5.14-32.44-18.46-38.62-38-4-12.53-4.72-25.54-5.47-38.43-1-18.27-.26-36.6,3.5-54.62,7-33.56,27-50.22,62.48-51.49a105.87,105.87,0,0,1,18.87,1.08c24,3.39,38.07,17.46,44.51,40.06a107.37,107.37,0,0,1,4.5,30.49C1202.29,1229.86,1204.82,1238.71,1203,1248.42Zm-43-26.31c-.32-5.89-.34-10.52-.89-15.08a68.71,68.71,0,0,0-2.4-11.64c-3.1-10.25-8.73-14.9-18.24-15.5-8.85-.56-16.47,4-20.52,12.86-4.24,9.22-5.17,18.91-3.69,29.36Z" transform="translate(824.2 907.38)" style="fill:#33304d"/><path d="M348,1249.06H259.2c-.83,14.83-.55,29,5.07,42.41,3.17,7.59,8.91,12.63,17.55,12.6,8.85,0,14.82-4.68,18.6-12.7,3-6.36,3.16-13.51,5.57-19.74h39.17c2.64,31.89-16.53,56.69-47.09,62a97.37,97.37,0,0,1-37.66-.95c-20.18-4.42-33.5-16.79-40.27-36.27a103.15,103.15,0,0,1-5.22-27.36c-1.48-23.25-2.2-46.52,2.86-69.49,7.2-32.66,26.72-48.82,62.41-50.17a96.61,96.61,0,0,1,19.84,1.22c21.06,3.53,34.93,15.23,41.81,35.34S349,1226.88,348,1249.06Zm-89.11-26.86c16.17,1,30.93.14,46.32-.43.65-9.47-.9-18.14-3.18-26.7-2.38-8.94-8.07-14.19-17.5-15-9-.82-16.4,3.42-20.82,12.18C259.12,1201.36,259.08,1211.19,258.93,1222.2Z" transform="translate(824.2 907.38)" style="fill:#33304d"/><path d="M1317.48,1299.69v30.58c-16.62,1.4-33.29,3.51-50-.36-12-2.76-17.67-11.24-19.2-22.74a192.36,192.36,0,0,1-1.84-23.84c-.21-29.3-.09-58.6-.09-87.91v-10.6h-22.21a248.41,248.41,0,0,1-.14-29.48c7-2.64,14.11-.16,22.08-2v-49.45h45.51v49.31c8.89,2.08,17.29-.16,25.77,1.68,1.06,9.69.7,19.17.15,29.69h-24.13c-2.38,3.4-1.61,6.14-1.62,8.7q-.1,42,0,83.91c0,19.38,2.44,21.75,21.68,22.17C1314.38,1299.34,1315.37,1299.5,1317.48,1299.69Z" transform="translate(824.2 907.38)" style="fill:#33304d"/><path d="M20.6,1299.7c.28,10.42.74,20.25-.37,30.51-15.68,1.72-30.83,3-46,.72-12.07-1.77-19.9-8.22-22.71-20.56-1.65-7.25-1.85-14.52-1.86-21.83q-.09-46.45,0-92.93v-9.93c-7.85-2.1-15.25,0-22.78-1.61v-28.93c7.42-2.27,14.93.47,22.73-2.11v-49.17H-6.12v48.62c8.77,3.4,17.21.59,25.84,2.32v29c-7.84,2.29-16.27-.27-24.06,1.48-2,2.7-1.23,5.46-1.23,8q-.09,41.48,0,82.94v1c.21,19,3.13,21.91,22,21.94C17.35,1299.18,18.31,1299.41,20.6,1299.7Z" transform="translate(824.2 907.38)" style="fill:#33304d"/><path d="M646.88,1097.18h44.37v233.35c-14.39.3-28.85.08-43.19.12C645.72,1322.86,644.75,1125.94,646.88,1097.18Z" transform="translate(824.2 907.38)" style="fill:#33304d"/><path d="M-422.75,1400.42c.1.25.33.52.28.73-.21.78-.65.87-1.08.21a.89.89,0,0,1,.15-.78C-423.3,1400.44-423,1400.47-422.75,1400.42Z" transform="translate(824.2 907.38)" style="fill:#bececb"/><path d="M-308.77,239.18c.64-2.58,1.07-5.27,3.87-6.58,3.11-1.47,5.36-3.76,6-7.12,5.73-.59,9.88.24,11.05,6.25a4.59,4.59,0,0,0,2.35,2.94c9,5.92,9.67,9,4.39,19.11-7.52-3.33-17-3.78-19.43-13.42-3-1.87-5.69-1.27-8.32-1.19Z" transform="translate(824.2 907.38)" style="fill:#bececb"/><path d="M64.1,824.66V748.52a186.49,186.49,0,0,1,27.27.06V980.67H66.11V965.1c-3.49-1-3.66,1.65-4.63,3.08-18.29,26.76-56,21.5-72.09,2.52-9.81-11.58-14.52-25.44-16.84-40-4.33-27.12-4.24-54.31,1.46-81.3a82.55,82.55,0,0,1,10.14-25.89c14.42-23.85,48-29.3,69.53-11.19C57.44,815.49,59.68,819.89,64.1,824.66Zm2.1,72.56a185.8,185.8,0,0,0-2.34-33.82c-2-11.59-5-22.82-14.21-31.18A27.23,27.23,0,0,0,7.57,838.5a44.26,44.26,0,0,0-5.38,13.9A214.08,214.08,0,0,0,2,934.64a47.32,47.32,0,0,0,5.57,14.89q8,13.77,23.87,13.53c15-.19,25.39-8.36,30.15-24.34C65.57,925.2,66.07,911.22,66.2,897.22Z" transform="translate(824.2 907.38)" style="fill:#33304d"/><path d="M-417.09,748.94c8.7-1.66,17.22-.61,26.78-.59V884.27l2.07.79L-328.62,807h31.82l-52.54,65.42L-287.51,981h-31.84l-48.44-85.76c-7.63,9.23-14.33,17.33-21,25.44-2.14,2.6-1.41,5.72-1.42,8.65-.08,13.66-.06,27.32-.07,41v10.64a176.15,176.15,0,0,1-26.79,0Z" transform="translate(824.2 907.38)" style="fill:#33304d"/><path d="M798.47,806.84h31.8l-52.69,65.64,61.78,108.27H807.44l-48.29-85.56c-7.63,9.28-14.59,17.63-21.43,26.08-2.07,2.56-1.25,5.77-1.26,8.71-.06,16.63,0,33.27,0,50.43-8.81,1.89-17.3.69-26.49.76V749c8.48-1.34,16.92-.79,26.11-.39V884.65l1.81.87c10.71-12.31,19.95-25.82,29.92-38.73C778,833.63,788.05,820.41,798.47,806.84Z" transform="translate(824.2 907.38)" style="fill:#33304d"/><path d="M313.08,897.51c.22-21.06,1.48-38.52,6.9-55.59,13.66-43,57.49-47,85.36-33.91,10.28,4.85,17.43,13.19,22.58,23.26a96.09,96.09,0,0,1,9,29.46c4.08,26.56,3.8,53-2.78,79.2a88,88,0,0,1-3.82,11.35c-11,27.17-34.11,38.17-61.84,34.78-30.33-3.72-46.32-21.1-52.35-54.18a121.28,121.28,0,0,1-1.87-12.81C313.66,910.77,313.35,902.45,313.08,897.51Zm28.64-5.09c0,5.34-.14,9,0,12.67.66,14.31,1.69,28.58,7.65,41.91,4.89,10.91,12.94,17.61,25.29,18,12.69.4,21.49-5.83,27.28-16.72a62.75,62.75,0,0,0,6.1-18.92c3.63-20.83,2.76-41.81,1.29-62.71a66.92,66.92,0,0,0-7.27-26.79c-5.82-11-14.7-16.92-27.32-16.68-12,.24-19.76,6.89-24.78,17.18a63.38,63.38,0,0,0-4.08,11.21C342.18,865.5,341.43,879.75,341.72,892.42Z" transform="translate(824.2 907.38)" style="fill:#33304d"/><path d="M-185.26,807.08h25.67v18.73c4.15-4.89,6.52-8.44,9.6-11.19,17-15.08,41.53-17,60.6-7.06,13.94,7.27,17.75,20.77,19,35.21.39,4.3.27,8.65.27,13q0,57.45,0,114.9c0,3.24.71,6.61-1,10.39a169.33,169.33,0,0,1-25.28-.14c-2.14-3.75-1.17-7.49-1.17-11q-.14-57,0-113.91c0-6.06-.59-11.94-3.09-17.53-3.24-7.26-8.94-11.45-16.63-12.91a34.57,34.57,0,0,0-40.27,28.4,85.92,85.92,0,0,0-.64,13q-.08,51.45,0,102.91V980.2c-9.07,2.4-17.79.66-26.95,1.07Z" transform="translate(824.2 907.38)" style="fill:#33304d"/><path d="M667.64,857.1H642.41c-2-3.91-1.75-8-2.26-11.84-1.92-14.88-10.6-22.49-25.62-22.16-11.28.24-21.12,3.52-25.94,15-5.68,13.48-1.24,25.86,11.64,33.07,6.14,3.44,12.82,5.52,19.48,7.61,8.88,2.79,17.77,5.56,26.3,9.35,17.69,7.86,26.48,21.42,26.42,40.81,0,7.68-.09,15.29-2.5,22.7-4.57,14.1-13.27,24.53-27.22,29.93-19.86,7.7-39.91,7.09-59.23-1.31-17.63-7.68-24.88-23.14-27.09-41.33-.52-4.23-.08-8.58-.08-13.58,8.55-1.3,17.35-.72,26-.3,2.39,3.7,1.08,7.47,1.51,11,2.71,22.42,21.09,34.15,42.62,27.23,11.09-3.55,16.83-11.36,18.58-22.44,1.69-10.68-1.47-19.77-9.89-26.66-5.46-4.48-12-7.08-18.62-9.37-9.43-3.26-18.9-6.41-28.26-9.86C569.79,888.08,560.66,875,559.35,855c-2.1-32.21,18.28-48.88,44.11-52.53a91.64,91.64,0,0,1,27.73.61c18.64,3,30.58,14.09,34.94,32.39a55,55,0,0,1,1.54,8.8C668,848.19,669,852.14,667.64,857.1Z" transform="translate(824.2 907.38)" style="fill:#33304d"/><path d="M1056.42,981h-25.65c-2-3.63-1-7.36-1-10.89q-.13-55.5,0-111a59.66,59.66,0,0,0-2.12-16.76c-3.11-10.78-10.56-16.51-21.88-17.19-20.62-1.23-36.17,13.55-37.31,35.58-.23,4.32,0,8.66,0,13V980.89H942.22V807.43c7.74-1.69,15.92-.57,24.37-.59,2.38,5.48.2,11.27,1.81,17.67,3-3.53,5.21-6.69,8-9.3,17.08-16.27,44.68-17.64,63.06-6.49,10.49,6.36,14.93,16.7,16.39,28.38a136.86,136.86,0,0,1,.93,16.94q.1,60,0,120C1056.76,976,1056.58,978,1056.42,981Z" transform="translate(824.2 907.38)" style="fill:#33304d"/><path d="M234.11,755.57h28.23v50.69h28.82c2.33,7.14.64,13.61,1.25,20.85H264.72c-3.53,3.55-2.33,7.07-2.34,10.24-.09,34.29.19,68.59-.17,102.88-.15,13.79,4.09,21.13,21.13,20.34,2.64-.13,5.26-.55,8.23-.87,1.24,7.26,1,14.45.13,22.51-12.34,1.63-24.61,2.36-36.69,0s-18-9.82-19.34-22.25a211.4,211.4,0,0,1-1.4-23.89c.15-32.29.09-64.59,0-96.88,0-3.59.74-7.29-1.15-11.62H210.23c-1.07-7-.5-13.18-.41-19.81,7.59-2.79,15.71.15,24.29-2.06Z" transform="translate(824.2 907.38)" style="fill:#33304d"/><path d="M866.67,981.21V808c3.34-2,6.39-1.23,9.3-1.29,5.57-.13,11.16,0,17.23,0V981.18A111,111,0,0,1,866.67,981.21Z" transform="translate(824.2 907.38)" style="fill:#33304d"/><path d="M-260,807.07h25.74v174h-24.68C-261,973.64-261.88,843-260,807.07Z" transform="translate(824.2 907.38)" style="fill:#33304d"/><path d="M866.67,778.66v-29.9c8.65-1.1,17.13-.79,26.32-.21v30.11Z" transform="translate(824.2 907.38)" style="fill:#33304d"/><path d="M-234.39,779h-25.42c-1-10.06-.51-19.79-.39-30.13h25.81Z" transform="translate(824.2 907.38)" style="fill:#33304d"/><path d="M-743.44-795.08l5.74.31c2.38,3.12,2,6.88,3.51,10.11-2.45,3.57-4.64,7.15-9.4,7.71C-742.53-783-741.06-789-743.44-795.08Z" transform="translate(824.2 907.38)" style="fill:#bececb"/><path d="M-234.38,1242.39c.33,14,.09,28-4,41.49-3.88,13-14,18.59-26,15.35-7.69-2.08-11.35-7.85-13.53-14.7-2.94-9.23-3.79-18.82-4-28.49-.3-15.62-.76-31.24,1.65-46.76A53.23,53.23,0,0,1-276,1195c3.47-7.49,9.7-11.13,17.48-11.16,8.13,0,14.76,3.49,18.34,11.44,4.47,9.93,5,20.59,5.78,31.15C-234,1231.72-234.38,1237.07-234.38,1242.39Z" transform="translate(824.2 907.38)" style="fill:#bececb"/><path d="M516.4,1241.87a178.68,178.68,0,0,1,1.51-31.86,52.57,52.57,0,0,1,4.51-15.23c3.57-7.35,9.82-10.91,17.69-10.88a18.37,18.37,0,0,1,17.07,10.25,45,45,0,0,1,4.83,16.16,263.36,263.36,0,0,1,0,62.74,59.13,59.13,0,0,1-2.92,12.6c-3.49,9.75-10.2,14.58-19.3,14.49s-15.75-5.21-19.14-14.79c-2.81-7.91-3.64-16.23-4.17-24.52C516.08,1254.53,516.4,1248.19,516.4,1241.87Z" transform="translate(824.2 907.38)" style="fill:#bececb"/><path d="M-582.37,1242.91c0,13.41.54,25.6-.14,37.73-.76,13.42-15.29,25.1-28.5,23.65-5.58-.61-10.2-3.37-12.71-8.49-7.15-14.62-5.66-36.78,15.57-43C-599.66,1250.27-591.24,1247.67-582.37,1242.91Z" transform="translate(824.2 907.38)" style="fill:#bececb"/><path d="M815.65,1242.52c0,13.21.31,24.52-.07,35.81-.5,15-12.65,26.14-27.55,25.84a15.84,15.84,0,0,1-15.32-12.12c-4.7-17.76-2.2-35,21.37-40.66C801.19,1249.67,807.8,1246.85,815.65,1242.52Z" transform="translate(824.2 907.38)" style="fill:#bececb"/><path d="M1160.06,1222.11h-45.74c-1.48-10.45-.55-20.14,3.69-29.36,4-8.81,11.67-13.42,20.52-12.86,9.51.6,15.14,5.25,18.24,15.5a68.71,68.71,0,0,1,2.4,11.64C1159.72,1211.59,1159.74,1216.22,1160.06,1222.11Z" transform="translate(824.2 907.38)" style="fill:#bececb"/><path d="M258.93,1222.2c.15-11,.19-20.84,4.82-30,4.42-8.76,11.78-13,20.82-12.18,9.43.86,15.12,6.11,17.5,15,2.28,8.56,3.83,17.23,3.18,26.7C289.86,1222.34,275.1,1223.18,258.93,1222.2Z" transform="translate(824.2 907.38)" style="fill:#bececb"/><path d="M66.2,897.22c-.13,14-.63,28-4.66,41.5-4.76,16-15.14,24.15-30.15,24.34q-15.93.21-23.87-13.53A47.32,47.32,0,0,1,2,934.64a214.08,214.08,0,0,1,.24-82.24,44.26,44.26,0,0,1,5.38-13.9,27.23,27.23,0,0,1,42.08-6.28c9.16,8.36,12.23,19.59,14.21,31.18A185.8,185.8,0,0,1,66.2,897.22Z" transform="translate(824.2 907.38)" style="fill:#bececb"/><path d="M341.72,892.42c-.29-12.67.46-26.92,4.19-40.86A63.38,63.38,0,0,1,350,840.35c5-10.29,12.76-16.94,24.78-17.18,12.62-.24,21.5,5.72,27.32,16.68a66.92,66.92,0,0,1,7.27,26.79c1.47,20.9,2.34,41.88-1.29,62.71a62.75,62.75,0,0,1-6.1,18.92c-5.79,10.89-14.59,17.12-27.28,16.72-12.35-.38-20.4-7.08-25.29-18-6-13.33-7-27.6-7.65-41.91C341.58,901.43,341.72,897.76,341.72,892.42Z" transform="translate(824.2 907.38)" style="fill:#bececb"/></svg>